<svg viewBox="0 0 100 100" xml:space="preserve" xmlns="http://www.w3.org/2000/svg"><path d="M69.608 36.263c-2.461.753-6.146-1.858-4.39-6.23.923-2.296 3.241-2.915 6.001-1.429 2.17 1.167 2.505 6.4-1.611 7.659zm3.862-11.39c7.219 6.212 5.38 20.909 5.327 29.23-.024 3.819.224 7.535-.021 10.619-.561 7.062-1.927 11-9.862 12.89-5.723 1.361-11.463 1.134-17.269.838-4.155-.212-8.278-.198-12.435-.042-3.456.13-7.211.074-10.335-1.623-7.6-4.126-7.817-18.197-7.554-26.196.058-1.721.092-3.423.052-5.087-.243-10.109 2.038-23.153 13.548-23.462 8.96-.24 17.909-.65 26.866-.335 3.978.141 8.522.448 11.683 3.168zm11.335 13.352c-.19-6.262-1.216-12.49-5.41-16.852-3.221-3.349-7.939-4.823-12.419-5.543-11.36-1.827-23.396-.833-34.824-.086-5.573.365-12.759 4.619-14.854 10.014-2.074 5.338-2.034 10.383-2.088 16.021-.039 4.126-.115 8.256.056 12.378.298 7.213-.217 13.506 2.455 20.36.553 1.418 1.229 2.578 2.264 3.737 2.299 2.574 4.439 4.453 7.758 5.438 4.339 1.287 8.985.925 13.506.925 10.439 0 22.58 2.144 32.537-1.752 8.211-3.212 11.145-11.053 10.919-19.185-.124-4.492.153-8.974.061-13.461-.077-3.653.166-7.831.039-11.994zm-17.177 9.589c-.541-3.275-2.104-6.834-4.214-9.35-3.919-4.672-13.066-9.689-24.08-2.85-5.521 3.429-7.83 12.426-7.011 17.993.114.779.283 1.536.501 2.27 3.218 10.837 17.181 16.403 26.652 9.619 5.401-3.868 9.266-10.935 8.152-17.682zm-6.461 5.104c-1.288 5.356-6.084 9.321-11.681 8.832-4.872-.427-8.3-3.021-9.81-6.562-1.203-2.821-1.188-6.245.284-9.654 2.256-5.222 8.778-7.989 14.07-5.657 4.614 2.031 8.341 8.034 7.137 13.041z" fill="#ffffff" class="fill-d162d1"></path></svg>